inDegrees=no
num_controls=7
num_derivatives=13
num_iterations=114
num_multipliers=7
num_parameters=0
num_slacks=7
num_states=26
objective=0.425750
objective_accelerations=0.059129
objective_balance=0.001276
objective_effort=0.014721
objective_height=0.344711
objective_ligament=0.005913
solver_duration=1650.536355
status=Solve_Succeeded
success=true
DataType=double
version=3
OpenSimVersion=4.5
endheader
time	/jointset/ground_pelvis/pelvis_tilt/value	/jointset/ground_pelvis/pelvis_tx/value	/jointset/ground_pelvis/pelvis_ty/value	/jointset/hip_l/hip_flexion_l/value	/jointset/hip_l/hip_adduction_l/value	/jointset/hip_l/hip_rotation_l/value	/jointset/back/lumbar_extension/value	/jointset/patellofemoral_l/patellar_flexion_l/value	/jointset/knee_l/knee_flexion_l/value	/jointset/knee_l/knee_adduction_l/value	/jointset/knee_l/knee_rotation_l/value	/jointset/ankle_l/ankle_angle_l/value	/jointset/subtalar_l/subtalar_angle_l/value	/jointset/ground_pelvis/pelvis_tilt/speed	/jointset/ground_pelvis/pelvis_tx/speed	/jointset/ground_pelvis/pelvis_ty/speed	/jointset/hip_l/hip_flexion_l/speed	/jointset/hip_l/hip_adduction_l/speed	/jointset/hip_l/hip_rotation_l/speed	/jointset/back/lumbar_extension/speed	/jointset/patellofemoral_l/patellar_flexion_l/speed	/jointset/knee_l/knee_flexion_l/speed	/jointset/knee_l/knee_adduction_l/speed	/jointset/knee_l/knee_rotation_l/speed	/jointset/ankle_l/ankle_angle_l/speed	/jointset/subtalar_l/subtalar_angle_l/speed	/forceset/tau_hip_flexion_l	/forceset/tau_hip_adduction_l	/forceset/tau_hip_rotation_l	/forceset/tau_knee_flexion_l	/forceset/tau_ankle_angle_l	/forceset/tau_subtalar_angle_l	/forceset/tau_lumbar_extension	lambda_cid13_p0	lambda_cid13_p1	lambda_cid13_p2	lambda_cid13_p3	lambda_cid13_p4	lambda_cid13_p5	lambda_cid14_p0	/jointset/ground_pelvis/pelvis_tilt/accel	/jointset/ground_pelvis/pelvis_tx/accel	/jointset/ground_pelvis/pelvis_ty/accel	/jointset/hip_l/hip_flexion_l/accel	/jointset/hip_l/hip_adduction_l/accel	/jointset/hip_l/hip_rotation_l/accel	/jointset/back/lumbar_extension/accel	/jointset/patellofemoral_l/patellar_flexion_l/accel	/jointset/knee_l/knee_flexion_l/accel	/jointset/knee_l/knee_adduction_l/accel	/jointset/knee_l/knee_rotation_l/accel	/jointset/ankle_l/ankle_angle_l/accel	/jointset/subtalar_l/subtalar_angle_l/accel	gamma_cid13_p0	gamma_cid13_p1	gamma_cid13_p2	gamma_cid13_p3	gamma_cid13_p4	gamma_cid13_p5	gamma_cid14_p0
1.5	-0.3418604400441424	0.05178365661961664	0.7887171340877188	1.01458609191954	-0.354655145623767	-0.05392200013691553	-0.3291113543270155	0.8327264573406149	0.8327264573409048	-0.02192874848308096	-0.1713638812874912	0.2809763244239066	0.162155683754127	0.4826628873758219	0.2705697639275704	0.5099737621808196	-2.337622660122941	0.005069301892437788	-0.5849848407338863	0.615731475093387	-2.241072824616948	-2.241072824616625	-0.3184396394318151	0.04303017520336518	-0.5590024903136713	-0.2194004056935962	-0.1307933549575597	0.041622967073888	-0.002604417231794124	-0.1320924582226576	-0.03733463219576317	0.01400785807907874	0.1250900995771007	-35.05214975639551	-1.376823566420877	1.572568987165087	-2.43311808124487	-428.4400547873793	-55.87194966622648	-9.535693910629611	0.5778532628731005	0.5722236169855827	-0.7888390428009402	-1.237098427801033	0.3176518242289874	-0.5173935690838036	1.578443624045172	-1.202494208732755	-1.202494208732833	-0.07820262688925636	0.3343413187379874	-0.5999249645226766	0.413436084008704	6.475398510781053e-07	-7.889094456605789e-07	-7.811120957157524e-06	-4.687909214555458e-07	1.512928485480939e-06	1.575115053422325e-06	8.409199501995641e-07
1.51	-0.3370049766415503	0.05451760518659195	0.7937764118106122	0.9911495858628735	-0.3545912939283238	-0.0597901283865499	-0.322877241585045	0.8102577665015824	0.8102577665018375	-0.02512695491196497	-0.1709153915936087	0.2753561831030396	0.1599784937130914	0.4883343044923215	0.2761748953937365	0.5017659726793455	-2.349334530140631	0.007699185817151782	-0.5885706554150372	0.6309740675206434	-2.252338740296508	-2.252338740296429	-0.3211812556629196	0.04669364038410534	-0.5649264946933276	-0.2160061639627387	-0.1261457554500481	0.04051033772104536	-0.00174275572249471	-0.1290650744416567	-0.03687945957800563	0.01299486771418077	0.1211983165646093	-34.79530148722097	-1.127366400135258	1.699006248328975	-2.260426858924216	-425.0217587621179	-55.51943662516112	-10.46542932142146	0.547518879701535	0.5478264118861008	-0.853805981281954	-1.08653904652129	0.2365511153422739	-0.2677358924126283	1.479616185080687	-1.039819198451918	-1.039819198488427	-0.3693446513599683	0.3848339786722981	-0.5737316087528336	0.3080553322295867	6.401367524521789e-07	-3.65025975586271e-07	-7.641325690776477e-06	-4.015707898257506e-07	1.551850733003022e-06	1.959098983428454e-06	8.448829286582023e-07
1.52	-0.3320956524790609	0.05730623876831974	0.7987502002229986	0.9676062995544751	-0.3545009645058842	-0.06569182687795212	-0.3164942130921991	0.7876861807155746	0.7876861807157987	-0.02835201820917782	-0.1704297702757364	0.2696797830515627	0.1578363735122853	0.4934350393553464	0.2815067668780697	0.4928759000794025	-2.358978710469056	0.01036484729185387	-0.5916988890874645	0.6455146252684903	-2.261651814011441	-2.261651814011605	-0.3238110130995824	0.05045650000205668	-0.5702542364356141	-0.2123864376476693	-0.1214981559425439	0.0393977083681993	-0.0008810942131469271	-0.1260376906606575	-0.03642428696024963	0.01198187734927674	0.1173065335521118	-34.5325008836332	-0.8805925225566896	1.827750730499402	-2.141495489880703	-421.5205149768317	-55.28161201616178	-11.39237425550123	0.4637168121781481	0.5175716206189992	-0.9252956624947288	-0.8235604899482116	0.3248073342266062	-0.4258773673391028	1.438036688163256	-0.8119258158073247	-0.8119258158073417	-0.05583086800091401	0.3542202061802197	-0.4806724370487593	0.458533000851069	6.279289987753499e-07	1.917855751780447e-09	-7.445505647126106e-06	-3.394874572462035e-07	1.580559946266575e-06	2.290072461287166e-06	8.417668395546834e-07
1.53	-0.327138092409029	0.06014664554059909	0.8036317845956635	0.9439769221480354	-0.3543837184163977	-0.0716231928911237	-0.3099693330171537	0.7650311657889969	0.7650311657891264	-0.0316020340729959	-0.1699060802475605	0.263952958309542	0.1557316646908259	0.4979862349872481	0.2865108866330846	0.4833353628812601	-2.366534444660179	0.01309057281951038	-0.5944723471321354	0.6593422853652833	-2.269012938049308	-2.269012938049435	-0.3261664226590271	0.05433650120180455	-0.5750188844339582	-0.2085205566306199	-0.117334595681295	0.03834062745662214	0.0001070682211801792	-0.1224788357683291	-0.03720643679951587	0.01081542882085459	0.1137169250018095	-34.71091416767079	-0.5161426347077427	1.967683809255825	-1.55612274879474	-418.401205796774	-54.85902539086518	-12.31496065576315	0.4372637943119134	0.4822265017371865	-0.9839528887023213	-0.667144944448135	0.2484395942351047	-0.1868703919557944	1.337265014167901	-0.6476357964686937	-0.6476357964630411	-0.3217371762874756	0.4118472253922728	-0.4605547595488068	0.3566012629284091	6.106162991069369e-07	3.083633209325602e-07	-7.222034277627077e-06	-2.828619736575448e-07	1.598417810630442e-06	2.564722333739249e-06	8.311292411663728e-07
1.54	-0.3221377318115557	0.06303517238018752	0.8084148595683011	0.9202828743875328	-0.3542388181851956	-0.07757905155852592	-0.3033097494723944	0.7423126536023053	0.7423126536023337	-0.03487487226769587	-0.1693421987776766	0.2581812483318737	0.1536668118016963	0.5019951448437787	0.2911307803398856	0.4731740200739651	-2.371912781281453	0.01589567563516449	-0.5965974199337944	0.6724553192112974	-2.274351266034867	-2.274351266034956	-0.3283754792733214	0.05849478834236047	-0.5792312835651657	-0.2044152511817098	-0.1131710354200505	0.03728354654504724	0.001095230655452574	-0.1189199808760023	-0.03798858663878192	0.009648980292436059	0.1101273164515029	-34.88255851711451	-0.1543435699433221	2.109718681938536	-1.029317915478857	-415.1949100456714	-54.54714074346563	-13.23245380072396	0.355259657103928	0.4407264109761958	-1.049456784325251	-0.3880809759782826	0.3406827918261315	-0.2962003187367608	1.295111438007473	-0.4073666053455989	-0.4073666053455992	-0.02656027897081953	0.4098773943418278	-0.370222663621424	0.506417887223215	5.519127085127265e-07	1.280230835541374e-06	-6.572124597512272e-06	-1.227728319529262e-07	1.5242418458707e-06	2.942282216111019e-06	8.340138095327382e-07
1.55	-0.3171000943344487	0.06596835857194301	0.8130934516006221	0.8965450351619827	-0.3540657858340065	-0.08355686604010898	-0.2965227848461305	0.7195503642505109	0.7195503642506712	-0.03816727091612371	-0.168738444443424	0.252370557191394	0.1516440397667743	0.5054170149544599	0.2954788012004271	0.4624601124241905	-2.375358942892182	0.01867574175685167	-0.5987413467140665	0.6848188792195656	-2.277815985159796	-2.277815985159837	-0.330239889880622	0.06237197494328828	-0.5827875622917628	-0.2001509140811779	-0.1080460515022817	0.03479215382723048	0.002190498145628083	-0.1180253963098734	-0.03530071991558534	0.008496951572916947	0.1060244549954403	-33.96251532562444	0.1317546870992935	2.124797402993728	-1.532307459363694	-412.6349395407576	-54.77554753820636	-14.14500748712554	0.3183936206490501	0.4277537398631195	-1.094750068709293	-0.2784029243635194	0.2417429403751247	-0.1389722039746955	1.189169258976547	-0.2726042386133889	-0.272604238606113	-0.2863298839699664	0.3932044712973955	-0.3302679557220137	0.3846213842379685	4.455196131561868e-07	3.018780276665054e-06	-5.430883820383667e-06	1.565244375809439e-07	1.344026904077242e-06	3.438412327303291e-06	8.524782656816642e-07
1.56	-0.3120316895697158	0.06894420773555796	0.817662426093764	0.8727816304861755	-0.3538659379379947	-0.08954921645875503	-0.2896157464244363	0.696762111772953	0.6967621117732562	-0.04148230335707697	-0.1680926052075055	0.2465279157679396	0.1496635470554114	0.5081486023690955	0.2996633747117777	0.4512505122381713	-2.377025871332639	0.02125878459994525	-0.59950460734643	0.6964700782974341	-2.279543891186598	-2.27954389118659	-0.3329022377823357	0.06691176867738238	-0.5856213401600869	-0.1959593864698548	-0.1029210675845211	0.03230076110940901	0.003285765635875969	-0.1171308117437475	-0.03261285319239082	0.007344922853390237	0.1019215935393712	-33.03578109817403	0.4163784441061031	2.140461736708906	-2.073823138393052	-409.9757175851507	-55.08918500039844	-15.05374986050422	0.2172031178948623	0.408036941138013	-1.148595291574164	-0.03223434192357411	0.3012781361074089	-0.02006708915501226	1.152639251927518	-0.06000398572004197	-0.06000398572004149	-0.1861477378534282	0.5423988209750876	-0.2257224919668328	0.4918559893814519	2.211326502485454e-07	4.650525220913148e-06	-3.018845502307622e-06	4.73458401319365e-07	8.647924443121035e-07	3.250391238849746e-06	7.249900155030894e-07
1.57	-0.3069396236591082	0.07196024882270044	0.8221166960150024	0.8490130174704908	-0.3536383927369395	-0.09555295188183065	-0.2825950260422989	0.6739670256005312	0.6739670256004747	-0.04481593426067906	-0.1674035983818448	0.2406609509610791	0.1477285721432005	0.5102128720999456	0.3034391654869417	0.4395228484808953	-2.376319064058177	0.02424273867821963	-0.6010845223306234	0.7075321383311878	-2.279106709180895	-2.279106709180878	-0.3338577828731175	0.07092659040224499	-0.5877091304253188	-0.191039754304178	-0.09998363834931968	0.03274221441256032	0.004234282377228724	-0.1118237661308659	-0.03633334915312952	0.00523271991411104	0.09910929585014989	-34.27934470798903	1.340393725692642	2.234222526794639	-0.518746196365242	-407.4134839589335	-53.61764533830022	-15.9525937290849	0.1932659117689349	0.3467079616887991	-1.197041315638224	0.1787515116914297	0.2945435867309928	-0.203172958520334	1.061710409295889	0.1505270878410175	0.1505270878424751	-0.05407861991744477	0.3372350106472555	-0.1906859892880541	0.4899007391200181	-1.50746647097972e-07	6.148764544066764e-06	9.816897419527065e-07	8.374382328134746e-07	1.178358708236856e-08	2.207181150838941e-06	4.150608824151409e-07
1.58	-0.301828469648975	0.07501091938079125	0.8264512514191011	0.8252627951774617	-0.3533814900864941	-0.1015677303058415	-0.2754679408537848	0.6511873008069945	0.6511873008065719	-0.04815988476024496	-0.1666732011064486	0.2347750325124688	0.1458423703344382	0.5119662222743497	0.3065892689014433	0.4273076088102483	-2.373347726801299	0.02713027447823668	-0.6017132075335694	0.7177430395728031	-2.27647161541017	-2.276471615410143	-0.3349661569729762	0.07518985862332388	-0.5894120685100191	-0.186204765780133	-0.0970462091141234	0.03318366771571005	0.005182799118537189	-0.1065167205179868	-0.04005384511386928	0.003120516974830125	0.09629699816092464	-35.52317247060782	2.261475196272665	2.331854356587732	1.03445678371065	-404.8992093025915	-52.13752137554874	-16.83178260188703	0.1550192066056641	0.2828994690055238	-1.246110474248368	0.4206716545597766	0.281994480455946	0.1701788670944678	0.982407493499831	0.379578367284237	0.3795783672842415	-0.2167135396687981	0.5920881202183427	-0.1487520558605495	0.4749272610550739	-3.196124350421801e-07	6.961257179035116e-06	2.715475713073124e-06	1.015329150754211e-06	-3.656646269479236e-07	1.813255523210196e-06	2.945642679344812e-07
